<?xml version="1.0" standalone="no"?>
<!DOCTYPE svg PUBLIC "-//W3C//DTD SVG 20010904//EN"
 "http://www.w3.org/TR/2001/REC-SVG-20010904/DTD/svg10.dtd">
<svg version="1.0" xmlns="http://www.w3.org/2000/svg"
 width="1152.000000pt" height="1152.000000pt" viewBox="0 0 1152.000000 1152.000000"
 preserveAspectRatio="xMidYMid meet">
<metadata>
Created by potrace 1.14, written by Peter Selinger 2001-2017
</metadata>
<g transform="translate(0.000000,1152.000000) scale(0.100000,-0.100000)"
fill="#000000" stroke="none">
<path d="M3028 9015 c-2 -1 -34 -6 -73 -9 -84 -9 -147 -18 -214 -31 -131 -26
-394 -105 -448 -134 -10 -6 -58 -28 -108 -50 -49 -23 -97 -45 -105 -51 -8 -5
-31 -17 -50 -27 -69 -34 -282 -177 -326 -218 -6 -5 -28 -23 -50 -40 -69 -53
-354 -344 -354 -362 0 -5 -25 -36 -72 -93 -7 -8 -40 -58 -73 -111 -33 -52 -66
-104 -73 -115 -6 -10 -17 -30 -23 -44 -6 -14 -17 -32 -24 -40 -7 -8 -14 -18
-14 -23 0 -4 -13 -36 -29 -70 -72 -152 -147 -347 -134 -347 4 0 2 -4 -4 -8 -9
-6 -20 -42 -49 -152 -2 -8 -4 -15 -5 -15 -1 0 -3 -11 -5 -25 -5 -26 -8 -38
-18 -80 -4 -14 -9 -41 -12 -60 -2 -19 -6 -44 -8 -55 -47 -216 -53 -678 -12
-957 15 -109 18 -127 40 -233 42 -207 128 -453 214 -620 17 -33 31 -65 31 -73
0 -7 7 -15 15 -18 8 -4 15 -12 15 -20 0 -32 199 -319 295 -423 205 -226 420
-392 676 -524 68 -35 147 -72 174 -82 28 -10 66 -25 85 -33 19 -9 40 -16 45
-18 6 -1 46 -13 90 -28 44 -14 91 -28 105 -31 14 -3 75 -16 135 -30 61 -13
135 -27 166 -30 31 -3 67 -8 80 -11 84 -18 549 -26 694 -12 132 14 162 17 196
23 210 35 385 85 579 168 14 6 27 11 30 12 42 10 341 179 348 197 2 5 10 8 18
8 8 0 14 4 14 8 0 4 12 15 28 24 15 10 39 27 53 40 15 13 42 36 60 51 69 57
174 164 232 237 33 41 64 78 69 81 5 3 9 8 7 10 -1 2 18 36 43 74 45 70 127
232 133 264 2 9 10 34 19 54 8 20 13 37 11 37 -2 0 1 15 6 33 20 67 30 238 17
307 -13 73 -56 122 -128 146 -66 22 -146 14 -203 -19 -36 -21 -116 -99 -152
-148 -97 -132 -139 -182 -218 -261 -51 -51 -105 -103 -120 -114 -91 -74 -252
-173 -307 -189 -14 -4 -33 -15 -44 -24 -10 -9 -19 -14 -20 -12 0 2 -24 -3 -52
-13 -28 -9 -59 -18 -70 -20 -10 -2 -37 -9 -59 -14 -91 -24 -342 -34 -451 -19
-165 23 -326 72 -450 138 -77 41 -186 115 -192 131 -2 4 -8 8 -14 8 -9 0 -139
128 -183 181 -29 34 -136 197 -136 206 0 4 -7 15 -14 23 -19 21 -84 166 -129
286 -15 43 -64 219 -72 264 -2 14 -7 39 -11 55 -3 17 -7 39 -8 50 -2 11 -8 47
-13 80 -10 54 -14 96 -28 260 -11 131 -5 518 10 660 14 129 19 161 22 166 2 4
6 27 8 51 3 25 12 74 20 110 8 36 17 77 20 89 38 188 172 489 279 626 42 55
182 186 232 219 80 52 172 96 229 109 11 3 41 9 66 15 25 6 81 13 125 16 44 3
85 6 90 6 73 5 280 -30 388 -67 106 -36 253 -115 317 -171 82 -71 163 -152
215 -215 70 -83 195 -266 195 -285 0 -7 4 -14 8 -16 9 -3 142 -267 142 -280 0
-14 74 -133 87 -141 7 -5 21 -16 31 -26 90 -90 286 -103 417 -26 120 70 161
182 121 330 -9 33 -19 68 -21 78 -2 9 -6 21 -9 25 -3 5 -7 20 -10 35 -2 15
-10 41 -16 59 -10 33 -137 480 -164 581 -8 28 -26 93 -41 142 -15 50 -29 100
-31 113 -3 13 -11 42 -19 66 -8 23 -16 51 -18 62 -2 10 -6 26 -9 34 -3 8 -16
44 -28 80 -57 169 -130 231 -266 224 -50 -2 -121 -24 -149 -47 -63 -51 -169
-124 -205 -140 -68 -31 -192 -26 -280 10 -8 3 -17 7 -20 8 -9 3 -85 36 -105
45 -48 23 -300 97 -355 105 -14 2 -38 6 -55 10 -84 15 -209 22 -387 23 -108 0
-198 -1 -200 -3z"/>
<path d="M5928 8884 c-2 -2 -25 -6 -51 -8 -156 -16 -249 -89 -274 -216 -9 -41
-10 -134 -2 -155 4 -11 13 -39 19 -62 20 -67 91 -136 195 -189 207 -106 242
-156 367 -516 38 -112 71 -207 72 -213 1 -5 4 -14 7 -20 3 -5 11 -30 18 -55 7
-25 18 -56 23 -70 6 -14 14 -34 18 -45 15 -41 31 -90 34 -100 2 -5 5 -17 8
-25 3 -8 20 -58 37 -110 18 -52 36 -104 40 -115 5 -11 15 -40 22 -65 7 -25 17
-51 23 -59 6 -8 10 -16 9 -18 -2 -1 -3 -4 -2 -5 0 -2 2 -10 4 -18 3 -12 107
-313 128 -370 3 -8 33 -98 68 -200 34 -102 77 -228 96 -280 18 -52 35 -102 37
-110 4 -14 64 -190 141 -412 19 -54 32 -98 28 -98 -3 0 -1 -6 5 -12 5 -7 33
-80 61 -163 117 -348 152 -451 161 -467 6 -10 10 -26 10 -36 0 -10 3 -22 7
-26 4 -3 8 -12 9 -19 1 -7 21 -68 45 -137 40 -120 42 -131 45 -265 5 -223 19
-269 107 -342 24 -19 99 -41 139 -39 21 0 38 -3 38 -7 0 -5 5 -5 10 -2 14 9
103 10 116 2 5 -3 16 -2 24 3 7 4 24 4 36 0 14 -6 26 -5 29 0 3 5 18 5 35 0
17 -5 30 -5 30 0 0 5 13 5 30 0 17 -5 30 -5 30 0 0 5 13 5 30 0 17 -5 30 -5
30 0 0 5 13 5 30 0 17 -5 30 -5 30 0 0 5 13 5 30 0 17 -5 30 -5 30 0 0 5 13 5
30 0 17 -5 30 -5 30 0 0 5 13 5 30 0 17 -5 30 -5 30 0 0 5 13 5 30 0 17 -5 30
-5 30 0 0 5 13 5 30 0 17 -5 30 -5 30 0 0 5 13 5 30 0 17 -5 30 -5 30 0 0 5
13 5 30 0 17 -5 30 -5 30 0 0 5 13 5 30 0 17 -5 30 -5 30 0 0 5 13 5 30 0 17
-5 30 -5 30 0 0 5 13 5 30 0 17 -5 30 -5 30 0 0 5 13 5 30 0 17 -5 30 -5 30 0
0 5 12 5 28 1 15 -5 37 -5 49 0 13 5 25 4 28 -2 4 -5 10 -7 14 -4 5 2 38 6 74
9 159 12 247 115 248 293 1 26 0 53 -1 58 -1 6 -1 15 0 20 6 27 5 52 -2 68 -5
9 -5 17 -1 17 5 0 8 17 8 38 -1 20 2 53 7 72 4 19 11 51 14 70 3 19 9 40 12
45 4 6 7 12 7 15 1 3 9 32 20 65 10 33 19 65 21 70 1 6 37 111 79 235 42 124
77 230 79 235 5 22 108 331 116 350 5 11 14 38 20 60 6 22 15 49 20 60 5 11
52 151 105 310 53 160 99 297 102 305 4 8 8 22 9 30 5 24 99 294 107 308 5 6
6 12 2 12 -3 0 1 13 10 30 8 16 15 32 14 35 0 3 11 41 26 85 15 44 27 83 28
87 0 5 11 37 25 73 13 36 30 85 37 110 7 25 19 62 28 83 9 20 16 41 17 45 0
10 20 74 30 97 5 11 52 151 105 310 108 326 97 296 160 429 56 114 147 217
230 257 28 13 52 26 55 30 3 3 23 13 45 23 22 11 52 27 68 38 15 11 27 17 27
14 0 -3 10 3 23 15 106 96 121 126 121 239 0 47 -4 94 -8 105 -5 11 -10 22
-10 25 -1 3 -11 21 -22 41 -37 63 -131 115 -216 121 -21 2 -38 6 -38 9 0 4
-18 3 -40 -1 -22 -4 -43 -3 -46 1 -3 5 -9 7 -14 4 -5 -3 -35 -5 -67 -5 -32 1
-73 1 -90 1 -59 -1 -133 0 -155 0 -13 1 -50 1 -83 0 -33 0 -67 0 -75 0 -8 0
-42 0 -75 0 -140 -1 -212 -1 -247 0 -26 1 -129 0 -197 -1 -25 -1 -48 -3 -53
-6 -4 -3 -8 0 -8 6 0 6 -3 9 -7 7 -5 -3 -36 -7 -69 -11 -139 -14 -221 -62
-264 -153 -28 -58 -36 -200 -14 -242 8 -14 14 -31 14 -38 0 -23 99 -108 167
-143 37 -19 71 -39 75 -45 5 -7 8 -7 8 0 0 7 3 7 8 0 4 -5 23 -18 42 -27 89
-45 162 -122 178 -188 5 -24 3 -143 -3 -170 -3 -14 -8 -36 -11 -50 -3 -13 -9
-29 -13 -35 -4 -5 -14 -32 -21 -60 -7 -27 -17 -55 -21 -60 -4 -6 -10 -22 -13
-37 -2 -14 -9 -36 -16 -47 -6 -12 -8 -21 -4 -21 3 0 2 -6 -4 -12 -5 -7 -18
-40 -27 -73 -10 -33 -20 -64 -24 -70 -3 -5 -6 -12 -6 -15 -1 -3 -9 -30 -20
-60 -10 -30 -20 -59 -21 -65 -2 -5 -62 -183 -134 -395 -72 -212 -133 -392
-135 -400 -2 -8 -34 -100 -70 -205 -37 -104 -68 -194 -69 -200 -2 -5 -6 -23
-11 -40 -4 -16 -13 -36 -19 -44 -6 -8 -10 -17 -10 -20 2 -7 2 -7 -27 -96 -13
-38 -24 -74 -25 -80 -2 -5 -24 -68 -49 -140 -25 -71 -47 -134 -48 -140 -5 -17
-69 -209 -79 -235 -9 -22 -17 -2 -69 155 -33 99 -62 187 -66 195 -3 8 -7 20
-8 25 0 6 -4 17 -8 25 -3 8 -52 155 -107 325 -56 171 -113 342 -127 380 -13
39 -28 84 -33 100 -4 17 -52 161 -105 320 -53 160 -98 297 -100 305 -3 8 -16
49 -30 90 -14 41 -27 83 -28 93 -1 9 -5 17 -9 17 -4 0 -7 3 -6 8 0 4 -1 14 -5
22 -3 8 -26 80 -52 160 -26 80 -50 154 -55 165 -13 30 -68 213 -79 264 -5 24
-8 71 -6 105 5 96 14 118 72 174 25 23 49 42 54 42 5 0 48 19 96 43 62 30 105
59 146 100 32 33 56 61 53 64 -3 3 -1 15 5 26 6 10 13 39 15 62 2 23 4 46 5
51 1 5 1 11 0 14 -1 3 -4 24 -7 47 -7 74 -66 158 -136 194 -32 16 -59 23 -130
33 -10 1 -20 5 -23 8 -3 3 -24 2 -45 -2 -22 -4 -43 -3 -46 1 -3 5 -10 6 -16 3
-6 -4 -38 -6 -72 -5 -68 3 -119 2 -156 -2 -14 -2 -37 0 -52 4 -15 4 -30 4 -33
-1 -3 -4 -20 -4 -39 0 -19 4 -40 4 -46 0 -7 -4 -26 -4 -41 0 -16 5 -31 5 -34
0 -3 -4 -20 -4 -39 0 -19 4 -40 4 -46 0 -7 -4 -26 -4 -41 0 -16 5 -31 5 -34 0
-3 -4 -20 -4 -39 0 -19 4 -40 4 -46 0 -7 -4 -26 -4 -41 0 -16 5 -31 5 -34 0
-3 -4 -20 -4 -39 0 -19 4 -40 4 -46 0 -7 -4 -26 -4 -41 0 -16 5 -31 5 -34 0
-3 -4 -20 -4 -39 0 -19 4 -40 4 -46 0 -7 -4 -26 -4 -41 0 -16 5 -31 5 -34 0
-3 -4 -20 -4 -39 0 -19 4 -40 4 -46 0 -7 -4 -26 -4 -41 0 -16 5 -31 5 -34 0
-3 -4 -20 -4 -39 0 -19 4 -40 4 -46 0 -7 -4 -26 -4 -41 0 -16 5 -31 5 -34 0
-3 -4 -20 -4 -39 0 -19 4 -40 4 -46 0 -7 -4 -26 -4 -41 0 -16 5 -31 5 -34 0
-3 -4 -20 -4 -39 0 -19 4 -40 4 -46 0 -7 -4 -26 -4 -41 0 -16 5 -31 5 -34 0
-3 -4 -20 -4 -39 0 -19 4 -40 4 -46 0 -7 -4 -25 -4 -40 0 -15 4 -33 4 -40 0
-7 -4 -25 -4 -41 0 -15 5 -29 6 -31 4z"/>
<path d="M1146 3203 c-1 -1 -31 -4 -66 -7 -202 -14 -370 -158 -426 -363 -19
-69 -18 -60 -10 -151 8 -88 28 -151 71 -217 35 -54 111 -135 128 -135 5 0 15
-6 21 -14 6 -7 43 -27 81 -42 l70 -29 4720 -3 c4198 -2 4726 0 4775 13 30 8
63 17 72 19 9 3 41 20 70 39 154 100 232 249 223 431 -7 153 -68 266 -200 370
-46 35 -162 78 -222 81 -30 1 -56 5 -59 8 -3 3 -16 2 -28 -3 -13 -4 -29 -4
-36 0 -8 5 -21 5 -30 0 -8 -4 -22 -4 -31 0 -8 5 -21 5 -29 0 -7 -4 -24 -4 -36
0 -14 6 -26 5 -29 0 -3 -6 -15 -6 -30 0 -15 6 -27 6 -30 0 -3 -6 -15 -6 -30 0
-15 6 -27 6 -30 0 -3 -6 -15 -6 -30 0 -15 6 -27 6 -30 0 -3 -6 -15 -6 -30 0
-15 6 -27 6 -30 0 -3 -6 -15 -6 -30 0 -15 6 -27 6 -30 0 -3 -6 -15 -6 -30 0
-15 6 -27 6 -30 0 -3 -5 -15 -6 -28 -1 -12 5 -34 5 -49 0 -16 -4 -28 -4 -28 1
0 6 -10 6 -25 0 -13 -5 -26 -6 -29 -2 -5 9 -81 6 -95 -3 -5 -3 -12 -1 -15 4
-4 6 -18 6 -36 1 -16 -5 -32 -5 -35 0 -3 4 -21 4 -40 0 -19 -4 -35 -4 -35 0 0
5 -13 5 -30 0 -18 -5 -30 -5 -30 0 0 6 -10 6 -25 0 -15 -6 -27 -6 -30 0 -3 6
-15 6 -30 0 -14 -5 -27 -5 -30 0 -3 5 -18 5 -35 0 -16 -5 -32 -5 -35 0 -3 4
-21 4 -40 0 -19 -4 -35 -4 -35 0 0 5 -13 5 -30 0 -18 -5 -30 -5 -30 0 0 5 -10
6 -22 2 -13 -4 -38 -6 -55 -4 -18 1 -40 2 -48 2 -8 0 -22 0 -30 0 -8 0 -23 0
-32 0 -10 0 -31 0 -48 1 -145 4 -285 3 -285 -3 0 -4 -14 -3 -30 2 -17 5 -30 5
-30 0 0 -5 -12 -5 -28 -1 -15 5 -37 5 -49 0 -13 -5 -25 -4 -28 1 -3 6 -15 6
-30 0 -15 -6 -27 -6 -30 0 -3 6 -15 6 -30 0 -15 -6 -27 -6 -30 0 -3 6 -15 6
-30 0 -15 -6 -27 -6 -30 0 -3 6 -15 6 -30 0 -15 -6 -27 -6 -30 0 -3 6 -15 6
-30 0 -15 -6 -27 -6 -30 0 -3 6 -15 6 -30 0 -15 -6 -27 -6 -30 0 -3 6 -15 6
-30 0 -15 -6 -27 -6 -30 0 -3 6 -15 6 -30 0 -15 -6 -27 -6 -30 0 -3 6 -15 6
-30 0 -15 -6 -27 -6 -30 0 -3 6 -15 6 -30 0 -13 -5 -26 -6 -29 -2 -3 5 -30 5
-61 2 -31 -3 -58 -3 -61 2 -3 4 -16 3 -29 -2 -15 -6 -27 -6 -30 0 -3 6 -15 6
-30 0 -15 -6 -27 -6 -30 0 -3 6 -15 6 -30 0 -15 -6 -27 -6 -30 0 -3 6 -15 6
-30 0 -15 -6 -27 -6 -30 0 -3 6 -15 6 -30 0 -15 -6 -27 -6 -30 0 -3 6 -15 6
-30 0 -15 -6 -27 -6 -30 0 -3 6 -15 6 -30 0 -15 -6 -27 -6 -30 0 -3 6 -15 6
-30 0 -15 -6 -27 -6 -30 0 -3 6 -15 6 -30 0 -15 -6 -27 -6 -30 0 -3 6 -15 6
-30 0 -15 -6 -27 -6 -30 0 -3 5 -15 6 -28 1 -12 -5 -32 -5 -44 0 -13 5 -25 4
-28 -1 -3 -6 -15 -6 -30 0 -14 5 -27 5 -30 0 -3 -5 -18 -5 -35 0 -17 5 -30 5
-30 0 0 -5 -13 -5 -30 0 -19 5 -30 5 -30 -1 0 -6 -5 -7 -10 -4 -14 8 -188 10
-196 2 -4 -3 -15 -2 -25 3 -11 7 -20 7 -24 0 -3 -5 -15 -6 -27 -1 -11 4 -40 4
-65 1 -24 -4 -46 -3 -49 1 -2 5 -16 4 -29 -1 -15 -6 -27 -6 -30 0 -3 6 -15 6
-30 0 -15 -6 -27 -6 -30 0 -3 6 -15 6 -30 0 -15 -6 -27 -6 -30 0 -3 6 -15 6
-30 0 -15 -6 -27 -6 -30 0 -3 6 -15 6 -30 0 -15 -6 -27 -6 -30 0 -3 6 -15 6
-30 0 -15 -6 -27 -6 -30 0 -3 6 -15 6 -30 0 -15 -6 -27 -6 -30 0 -3 6 -15 6
-30 0 -15 -6 -27 -6 -30 0 -3 6 -15 6 -30 0 -15 -6 -27 -6 -30 0 -3 6 -15 6
-30 0 -15 -6 -27 -6 -30 0 -3 5 -15 6 -28 1 -12 -5 -32 -5 -44 0 -13 5 -25 4
-28 -1 -3 -6 -15 -6 -30 0 -14 5 -27 5 -30 0 -3 -5 -18 -5 -35 0 -17 5 -30 5
-30 0 0 -5 -13 -5 -30 0 -19 5 -30 5 -30 -1 0 -6 -5 -7 -10 -4 -14 8 -188 10
-196 2 -4 -3 -15 -2 -25 3 -11 7 -20 7 -24 0 -3 -5 -15 -6 -27 -1 -12 4 -36 5
-54 1 -18 -4 -38 -4 -45 1 -7 4 -20 4 -29 -1 -9 -5 -22 -5 -30 0 -8 5 -21 5
-31 0 -9 -5 -19 -7 -22 -4 -8 8 -297 10 -297 2 0 -4 -14 -3 -30 2 -17 5 -30 5
-30 0 0 -5 -12 -5 -28 -1 -15 5 -37 5 -49 0 -13 -5 -25 -4 -28 1 -3 6 -15 6
-30 0 -15 -6 -27 -6 -30 0 -3 6 -15 6 -30 0 -15 -6 -27 -6 -30 0 -3 6 -15 6
-30 0 -15 -6 -27 -6 -30 0 -3 6 -15 6 -30 0 -15 -6 -27 -6 -30 0 -3 6 -15 6
-30 0 -15 -6 -27 -6 -30 0 -3 6 -15 6 -30 0 -15 -6 -27 -6 -30 0 -3 6 -15 6
-30 0 -15 -6 -27 -6 -30 0 -3 6 -15 6 -30 0 -15 -6 -27 -6 -30 0 -3 6 -15 6
-30 0 -15 -6 -27 -6 -30 0 -3 6 -15 6 -30 0 -13 -5 -26 -6 -29 -2 -5 9 -81 6
-95 -3 -5 -3 -12 -1 -15 4 -4 6 -18 6 -36 1 -16 -5 -32 -5 -35 0 -3 4 -21 4
-40 0 -19 -4 -35 -4 -35 0 0 5 -13 5 -30 0 -18 -5 -30 -5 -30 0 0 6 -10 6 -25
0 -15 -6 -27 -6 -30 0 -3 6 -15 6 -30 0 -14 -5 -27 -5 -30 0 -3 5 -18 5 -35 0
-16 -5 -32 -5 -35 0 -3 4 -21 4 -40 0 -19 -4 -35 -4 -35 0 0 5 -13 5 -30 0
-19 -5 -30 -5 -30 1 0 6 -5 7 -10 4 -14 -9 -108 -10 -116 -2 -3 3 -17 2 -30
-3 -14 -6 -26 -6 -29 0 -3 5 -15 6 -28 1 -12 -5 -32 -5 -44 0 -13 5 -25 4 -28
-1 -3 -6 -15 -6 -30 0 -15 6 -27 6 -30 0 -3 -6 -15 -6 -30 0 -15 6 -27 6 -30
0 -3 -6 -15 -6 -30 0 -15 6 -27 6 -30 0 -3 -6 -15 -6 -30 0 -15 6 -27 6 -30 0
-3 -6 -15 -6 -30 0 -15 6 -27 6 -30 0 -3 -6 -15 -6 -30 0 -15 6 -27 6 -30 0
-3 -6 -15 -6 -30 0 -15 6 -27 6 -30 0 -3 -6 -15 -6 -30 0 -15 6 -27 6 -30 0
-3 -6 -15 -6 -30 0 -15 6 -27 6 -30 0 -3 -6 -15 -6 -30 0 -15 6 -27 6 -30 0
-3 -6 -15 -6 -30 0 -15 6 -27 6 -30 0 -3 -6 -15 -6 -30 0 -15 6 -27 6 -30 0
-3 -6 -15 -6 -30 0 -15 6 -27 6 -30 0 -3 -6 -15 -6 -30 0 -15 6 -27 6 -30 0
-3 -5 -15 -6 -28 -1 -12 5 -34 5 -49 0 -16 -4 -28 -4 -28 1 0 6 -10 6 -25 0
-13 -5 -26 -6 -29 -2 -5 9 -81 6 -95 -3 -5 -3 -12 -1 -15 4 -4 6 -18 6 -36 1
-16 -5 -32 -5 -35 0 -3 4 -21 4 -40 0 -19 -4 -35 -4 -35 0 0 5 -13 5 -30 0
-18 -5 -30 -5 -30 0 0 6 -10 6 -25 0 -15 -6 -27 -6 -30 0 -3 6 -15 6 -30 0
-14 -5 -27 -5 -30 0 -3 5 -18 5 -35 0 -16 -5 -32 -5 -35 0 -3 4 -21 4 -40 0
-19 -4 -35 -4 -35 0 0 5 -13 5 -30 0 -18 -5 -30 -5 -30 0 0 5 -10 6 -22 2 -13
-4 -36 -6 -53 -5 -72 6 -117 8 -119 6z"/>
</g>
</svg>
